# UV-preserving conversion of official IMAV 2022 gate DAE
# source sha256 afa65a0b5130a268a1a73f5a81cd039ddad78b05eb1afd236320cc7328f36be1
v 0.06999999 -0.1999999 0
v 0.06999999 -0.1999999 0.1
v 0.06999999 0.1999999 0
v 0.06999999 0.1999999 0.1
v 0.47 -0.1999999 0
v 0.47 -0.1999999 0.1
v 0.47 0.1999999 0
v 0.47 0.1999999 0.1
v -0.294 -0.04999995 0.706
v -0.294 -0.04999995 1.294
v -0.294 -0.02999997 0.706
v -0.294 -0.02999997 1.294
v 0.294 -0.04999995 0.706
v 0.294 -0.04999995 1.294
v 0.294 -0.02999997 0.706
v 0.294 -0.02999997 1.294
v -0.1999999 -0.02999997 0.8
v -0.1999999 -0.02999997 1.2
v 0.1999999 -0.02999997 1.2
v 0.1999999 -0.02999997 0.8
v -0.1999999 -0.04999995 1.2
v 0.1999999 -0.04999995 0.8
v 0.1999999 -0.04999995 1.2
v -0.1999999 -0.04999995 0.8
v 0.264 0.02999997 0
v 0.264 0.02999997 1.294
v 0.2754805 0.02771633 0
v 0.2754805 0.02771633 1.294
v 0.2852132 0.02121317 0
v 0.2852132 0.02121317 1.294
v 0.2917164 0.01148045 0
v 0.2917164 0.01148045 1.294
v 0.294 0 0
v 0.294 0 1.294
v 0.2917164 -0.01148045 0
v 0.2917164 -0.01148045 1.294
v 0.2852132 -0.02121317 0
v 0.2852132 -0.02121317 1.294
v 0.2754805 -0.02771633 0
v 0.2754805 -0.02771633 1.294
v 0.264 -0.02999997 0
v 0.264 -0.02999997 1.294
v 0.2525195 -0.02771633 0
v 0.2525195 -0.02771633 1.294
v 0.2427868 -0.02121317 0
v 0.2427868 -0.02121317 1.294
v 0.2362836 -0.01148051 0
v 0.2362836 -0.01148051 1.294
v 0.234 0 0
v 0.234 0 1.294
v 0.2362836 0.01148051 0
v 0.2362836 0.01148051 1.294
v 0.2427868 0.02121317 0
v 0.2427868 0.02121317 1.294
v 0.2525195 0.02771633 0
v 0.2525195 0.02771633 1.294
v -0.264 0.02999997 0.4
v 0.264 0.02999997 0.4
v -0.264 0.02771633 0.3885195
v 0.264 0.02771633 0.3885195
v -0.264 0.02121317 0.3787868
v 0.264 0.02121317 0.3787868
v -0.264 0.01148045 0.3722836
v 0.264 0.01148045 0.3722836
v -0.264 0 0.37
v 0.264 0 0.37
v -0.264 -0.01148045 0.3722836
v 0.264 -0.01148045 0.3722836
v -0.264 -0.02121317 0.3787868
v 0.264 -0.02121317 0.3787868
v -0.264 -0.02771633 0.3885195
v 0.264 -0.02771633 0.3885195
v -0.264 -0.02999997 0.4
v 0.264 -0.02999997 0.4
v -0.264 -0.02771633 0.4114805
v 0.264 -0.02771633 0.4114805
v -0.264 -0.02121317 0.4212132
v 0.264 -0.02121317 0.4212132
v -0.264 -0.01148051 0.4277164
v 0.264 -0.01148051 0.4277164
v -0.264 0 0.43
v 0.264 0 0.43
v -0.264 0.01148051 0.4277164
v 0.264 0.01148051 0.4277164
v -0.264 0.02121317 0.4212132
v 0.264 0.02121317 0.4212132
v -0.264 0.02771633 0.4114805
v 0.264 0.02771633 0.4114805
v -0.06999999 -0.1999999 0
v -0.06999999 -0.1999999 0.1
v -0.06999999 0.1999999 0
v -0.06999999 0.1999999 0.1
v -0.47 -0.1999999 0
v -0.47 -0.1999999 0.1
v -0.47 0.1999999 0
v -0.47 0.1999999 0.1
v 0.294 -0.04999995 0.706
v 0.294 -0.04999995 1.294
v 0.294 -0.02999997 0.706
v 0.294 -0.02999997 1.294
v -0.294 -0.04999995 0.706
v -0.294 -0.04999995 1.294
v -0.294 -0.02999997 0.706
v -0.294 -0.02999997 1.294
v 0.1999999 -0.02999997 0.8
v 0.1999999 -0.02999997 1.2
v -0.1999999 -0.02999997 1.2
v -0.1999999 -0.02999997 0.8
v 0.1999999 -0.04999995 1.2
v -0.1999999 -0.04999995 0.8
v -0.1999999 -0.04999995 1.2
v 0.1999999 -0.04999995 0.8
v -0.264 0.02999997 0
v -0.264 0.02999997 1.294
v -0.2754805 0.02771633 0
v -0.2754805 0.02771633 1.294
v -0.2852132 0.02121317 0
v -0.2852132 0.02121317 1.294
v -0.2917164 0.01148045 0
v -0.2917164 0.01148045 1.294
v -0.294 0 0
v -0.294 0 1.294
v -0.2917164 -0.01148045 0
v -0.2917164 -0.01148045 1.294
v -0.2852132 -0.02121317 0
v -0.2852132 -0.02121317 1.294
v -0.2754805 -0.02771633 0
v -0.2754805 -0.02771633 1.294
v -0.264 -0.02999997 0
v -0.264 -0.02999997 1.294
v -0.2525195 -0.02771633 0
v -0.2525195 -0.02771633 1.294
v -0.2427868 -0.02121317 0
v -0.2427868 -0.02121317 1.294
v -0.2362836 -0.01148051 0
v -0.2362836 -0.01148051 1.294
v -0.234 0 0
v -0.234 0 1.294
v -0.2362836 0.01148051 0
v -0.2362836 0.01148051 1.294
v -0.2427868 0.02121317 0
v -0.2427868 0.02121317 1.294
v -0.2525195 0.02771633 0
v -0.2525195 0.02771633 1.294
v 0.264 0.02999997 0.4
v -0.264 0.02999997 0.4
v 0.264 0.02771633 0.3885195
v -0.264 0.02771633 0.3885195
v 0.264 0.02121317 0.3787868
v -0.264 0.02121317 0.3787868
v 0.264 0.01148045 0.3722836
v -0.264 0.01148045 0.3722836
v 0.264 0 0.37
v -0.264 0 0.37
v 0.264 -0.01148045 0.3722836
v -0.264 -0.01148045 0.3722836
v 0.264 -0.02121317 0.3787868
v -0.264 -0.02121317 0.3787868
v 0.264 -0.02771633 0.3885195
v -0.264 -0.02771633 0.3885195
v 0.264 -0.02999997 0.4
v -0.264 -0.02999997 0.4
v 0.264 -0.02771633 0.4114805
v -0.264 -0.02771633 0.4114805
v 0.264 -0.02121317 0.4212132
v -0.264 -0.02121317 0.4212132
v 0.264 -0.01148051 0.4277164
v -0.264 -0.01148051 0.4277164
v 0.264 0 0.43
v -0.264 0 0.43
v 0.264 0.01148051 0.4277164
v -0.264 0.01148051 0.4277164
v 0.264 0.02121317 0.4212132
v -0.264 0.02121317 0.4212132
v 0.264 0.02771633 0.4114805
v -0.264 0.02771633 0.4114805
vt 0.4784853 0.4025834
vt 0.4127254 0.6656229
vt 0.4127254 0.4025833
vt 0.5548552 0.4025833
vt 0.4890952 0.6656228
vt 0.4890952 0.4025833
vt 0.565465 0.665623
vt 0.6312249 0.4025833
vt 0.6312249 0.665623
vt 0.7075949 0.4025834
vt 0.6418349 0.6656228
vt 0.6418349 0.4025834
vt 0.005304992 0.4025834
vt 0.2683445 0.6656229
vt 0.005304932 0.6656229
vt 0.981543 0.005304932
vt 0.994695 0.3919703
vt 0.9815428 0.3919702
vt 0.7788811 0.789249
vt 0.7657288 0.4025833
vt 0.778881 0.4025833
vt 0.7313569 0.7892531
vt 0.7182051 0.4025834
vt 0.7313569 0.4025833
vt 0.7419667 0.4025833
vt 0.7551184 0.7892536
vt 0.7419667 0.7892536
vt 0.8130134 0.6296184
vt 0.7998617 0.89266
vt 0.7998613 0.6296184
vt 0.3301589 0.330159
vt 0.3919733 0.005304932
vt 0.3919733 0.3919734
vt 0.4025833 0.005304932
vt 0.4643977 0.330159
vt 0.4025834 0.3919733
vt 0.005304932 0.3919734
vt 0.3301589 0.330159
vt 0.3919733 0.3919734
vt 0.005304932 0.3919734
vt 0.06711912 0.06711989
vt 0.0671193 0.3301591
vt 0.8473854 0.8926596
vt 0.8605371 0.6296183
vt 0.8605375 0.8926596
vt 0.4025834 0.3919733
vt 0.7274371 0.330159
vt 0.7892513 0.3919733
vt 0.8236231 0.6296184
vt 0.8367753 0.8926592
vt 0.8236235 0.8926591
vt 0.7274371 0.330159
vt 0.7892513 0.005305171
vt 0.7892513 0.3919733
vt 0.8842993 0.89266
vt 0.8711476 0.6296184
vt 0.8842993 0.6296184
vt 0.928165 0.6181893
vt 0.9174731 0.005646049
vt 0.9281651 0.005577862
vt 0.9174731 0.6182575
vt 0.9067811 0.005714297
vt 0.9174731 0.005646049
vt 0.9067811 0.6183258
vt 0.8960891 0.005782544
vt 0.9067811 0.005714297
vt 0.8960891 0.6183941
vt 0.8853971 0.005850732
vt 0.8960891 0.005782544
vt 0.8853971 0.6184623
vt 0.8747051 0.005918979
vt 0.8853971 0.005850732
vt 0.8747051 0.6185306
vt 0.8640132 0.005987226
vt 0.8747051 0.005918979
vt 0.8640132 0.6185989
vt 0.8533211 0.006055414
vt 0.8640132 0.005987226
vt 0.8533211 0.6186671
vt 0.8426291 0.006123661
vt 0.8533211 0.006055414
vt 0.8426291 0.6187353
vt 0.8319373 0.006191909
vt 0.8426291 0.006123661
vt 0.8319373 0.6188038
vt 0.8212451 0.006260097
vt 0.8319373 0.006191909
vt 0.8212451 0.6188719
vt 0.8105532 0.006328344
vt 0.8212451 0.006260097
vt 0.8105532 0.6189402
vt 0.7998612 0.006396532
vt 0.8105532 0.006328344
vt 0.9709329 0.6179163
vt 0.9602409 0.005373179
vt 0.9709329 0.005304932
vt 0.9602409 0.6179845
vt 0.949549 0.005441427
vt 0.9602409 0.005373179
vt 0.02080512 0.7149307
vt 0.008250653 0.7065421
vt 0.0410571 0.6846215
vt 0.949549 0.6180527
vt 0.9388569 0.005509614
vt 0.949549 0.005441427
vt 0.9388569 0.6181211
vt 0.9281651 0.005577862
vt 0.9388569 0.005509614
vt 0.3097447 0.7497987
vt 0.3020479 0.4025833
vt 0.3097461 0.4025833
vt 0.3020471 0.7497987
vt 0.2943516 0.4025833
vt 0.3020479 0.4025833
vt 0.2943496 0.7497986
vt 0.2866553 0.4025833
vt 0.2943516 0.4025833
vt 0.2866519 0.7497985
vt 0.2789571 0.4025833
vt 0.2866553 0.4025833
vt 0.4021155 0.7497987
vt 0.3944148 0.4025833
vt 0.402113 0.4025833
vt 0.3944178 0.7497987
vt 0.3867185 0.4025834
vt 0.3944148 0.4025833
vt 0.3867202 0.7497988
vt 0.3790222 0.4025834
vt 0.3867185 0.4025834
vt 0.3790228 0.7497988
vt 0.371324 0.4025834
vt 0.3790222 0.4025834
vt 0.3713252 0.7497988
vt 0.3636258 0.4025834
vt 0.371324 0.4025834
vt 0.3636276 0.7497988
vt 0.3559295 0.4025835
vt 0.3636258 0.4025834
vt 0.35593 0.7497988
vt 0.3482332 0.4025835
vt 0.3559295 0.4025835
vt 0.3482325 0.7497988
vt 0.3405351 0.4025835
vt 0.3482332 0.4025835
vt 0.3405349 0.7497988
vt 0.3328369 0.4025835
vt 0.3405351 0.4025835
vt 0.3328374 0.7497988
vt 0.3251405 0.4025835
vt 0.3328369 0.4025835
vt 0.3251398 0.7497988
vt 0.3174442 0.4025835
vt 0.3251405 0.4025835
vt 0.3174422 0.7497987
vt 0.3097461 0.4025833
vt 0.3174442 0.4025835
vt 0.4127254 0.6656229
vt 0.4784853 0.4025834
vt 0.4127254 0.4025833
vt 0.4890952 0.6656228
vt 0.5548552 0.4025833
vt 0.4890952 0.4025833
vt 0.6312249 0.4025833
vt 0.565465 0.665623
vt 0.6312249 0.665623
vt 0.6418349 0.6656228
vt 0.7075949 0.4025834
vt 0.6418349 0.4025834
vt 0.2683445 0.6656229
vt 0.005304992 0.4025834
vt 0.005304932 0.6656229
vt 0.994695 0.3919703
vt 0.981543 0.005304932
vt 0.9815428 0.3919702
vt 0.7657288 0.4025833
vt 0.7788811 0.789249
vt 0.778881 0.4025833
vt 0.7182051 0.4025834
vt 0.7313569 0.7892531
vt 0.7313569 0.4025833
vt 0.7551184 0.7892536
vt 0.7419667 0.4025833
vt 0.7419667 0.7892536
vt 0.7998617 0.89266
vt 0.8130134 0.6296184
vt 0.7998613 0.6296184
vt 0.3919733 0.005304932
vt 0.3301589 0.330159
vt 0.3919733 0.3919734
vt 0.4643977 0.330159
vt 0.4025833 0.005304932
vt 0.4025834 0.3919733
vt 0.3301589 0.330159
vt 0.005304932 0.3919734
vt 0.3919733 0.3919734
vt 0.06711912 0.06711989
vt 0.005304932 0.3919734
vt 0.0671193 0.3301591
vt 0.8605371 0.6296183
vt 0.8473854 0.8926596
vt 0.8605375 0.8926596
vt 0.7274371 0.330159
vt 0.4025834 0.3919733
vt 0.7892513 0.3919733
vt 0.8367753 0.8926592
vt 0.8236231 0.6296184
vt 0.8236235 0.8926591
vt 0.7892513 0.005305171
vt 0.7274371 0.330159
vt 0.7892513 0.3919733
vt 0.8711476 0.6296184
vt 0.8842993 0.89266
vt 0.8842993 0.6296184
vt 0.9174731 0.005646049
vt 0.928165 0.6181893
vt 0.9281651 0.005577862
vt 0.9067811 0.005714297
vt 0.9174731 0.6182575
vt 0.9174731 0.005646049
vt 0.8960891 0.005782544
vt 0.9067811 0.6183258
vt 0.9067811 0.005714297
vt 0.8853971 0.005850732
vt 0.8960891 0.6183941
vt 0.8960891 0.005782544
vt 0.8747051 0.005918979
vt 0.8853971 0.6184623
vt 0.8853971 0.005850732
vt 0.8640132 0.005987226
vt 0.8747051 0.6185306
vt 0.8747051 0.005918979
vt 0.8533211 0.006055414
vt 0.8640132 0.6185989
vt 0.8640132 0.005987226
vt 0.8426291 0.006123661
vt 0.8533211 0.6186671
vt 0.8533211 0.006055414
vt 0.8319373 0.006191909
vt 0.8426291 0.6187353
vt 0.8426291 0.006123661
vt 0.8212451 0.006260097
vt 0.8319373 0.6188038
vt 0.8319373 0.006191909
vt 0.8105532 0.006328344
vt 0.8212451 0.6188719
vt 0.8212451 0.006260097
vt 0.7998612 0.006396532
vt 0.8105532 0.6189402
vt 0.8105532 0.006328344
vt 0.9602409 0.005373179
vt 0.9709329 0.6179163
vt 0.9709329 0.005304932
vt 0.949549 0.005441427
vt 0.9602409 0.6179845
vt 0.9602409 0.005373179
vt 0.02850258 0.6762328
vt 0.01369357 0.6791785
vt 0.005304932 0.6917331
vt 0.9388569 0.005509614
vt 0.949549 0.6180527
vt 0.949549 0.005441427
vt 0.9281651 0.005577862
vt 0.9388569 0.6181211
vt 0.9388569 0.005509614
vt 0.3020479 0.4025833
vt 0.3097447 0.7497987
vt 0.3097461 0.4025833
vt 0.2943516 0.4025833
vt 0.3020471 0.7497987
vt 0.3020479 0.4025833
vt 0.2866553 0.4025833
vt 0.2943496 0.7497986
vt 0.2943516 0.4025833
vt 0.2789571 0.4025833
vt 0.2866519 0.7497985
vt 0.2866553 0.4025833
vt 0.3944148 0.4025833
vt 0.4021155 0.7497987
vt 0.402113 0.4025833
vt 0.3867185 0.4025834
vt 0.3944178 0.7497987
vt 0.3944148 0.4025833
vt 0.3790222 0.4025834
vt 0.3867202 0.7497988
vt 0.3867185 0.4025834
vt 0.371324 0.4025834
vt 0.3790228 0.7497988
vt 0.3790222 0.4025834
vt 0.3636258 0.4025834
vt 0.3713252 0.7497988
vt 0.371324 0.4025834
vt 0.3559295 0.4025835
vt 0.3636276 0.7497988
vt 0.3636258 0.4025834
vt 0.3482332 0.4025835
vt 0.35593 0.7497988
vt 0.3559295 0.4025835
vt 0.3405351 0.4025835
vt 0.3482325 0.7497988
vt 0.3482332 0.4025835
vt 0.3328369 0.4025835
vt 0.3405349 0.7497988
vt 0.3405351 0.4025835
vt 0.3251405 0.4025835
vt 0.3328374 0.7497988
vt 0.3328369 0.4025835
vt 0.3174442 0.4025835
vt 0.3251398 0.7497988
vt 0.3251405 0.4025835
vt 0.3097461 0.4025833
vt 0.3174422 0.7497987
vt 0.3174442 0.4025835
vt 0.4784853 0.4025834
vt 0.4784853 0.6656229
vt 0.4127254 0.6656229
vt 0.5548552 0.4025833
vt 0.5548551 0.6656228
vt 0.4890952 0.6656228
vt 0.565465 0.665623
vt 0.565465 0.4025834
vt 0.6312249 0.4025833
vt 0.7075949 0.4025834
vt 0.7075949 0.6656228
vt 0.6418349 0.6656228
vt 0.005304992 0.4025834
vt 0.2683445 0.4025834
vt 0.2683445 0.6656229
vt 0.981543 0.005304932
vt 0.994695 0.005304932
vt 0.994695 0.3919703
vt 0.7788811 0.789249
vt 0.7657291 0.789249
vt 0.7657288 0.4025833
vt 0.7313569 0.7892531
vt 0.7182047 0.7892531
vt 0.7182051 0.4025834
vt 0.7419667 0.4025833
vt 0.7551188 0.4025833
vt 0.7551184 0.7892536
vt 0.8130134 0.6296184
vt 0.8130134 0.89266
vt 0.7998617 0.89266
vt 0.3301589 0.330159
vt 0.330159 0.06711918
vt 0.3919733 0.005304932
vt 0.4025833 0.005304932
vt 0.4643977 0.06711935
vt 0.4643977 0.330159
vt 0.005304932 0.3919734
vt 0.0671193 0.3301591
vt 0.3301589 0.330159
vt 0.005304932 0.3919734
vt 0.005304932 0.005305707
vt 0.06711912 0.06711989
vt 0.8473854 0.8926596
vt 0.8473854 0.6296183
vt 0.8605371 0.6296183
vt 0.4025834 0.3919733
vt 0.4643977 0.330159
vt 0.7274371 0.330159
vt 0.8236231 0.6296184
vt 0.8367753 0.6296184
vt 0.8367753 0.8926592
vt 0.7274371 0.330159
vt 0.7274371 0.06711935
vt 0.7892513 0.005305171
vt 0.8842993 0.89266
vt 0.8711473 0.89266
vt 0.8711476 0.6296184
vt 0.928165 0.6181893
vt 0.9174731 0.6182575
vt 0.9174731 0.005646049
vt 0.9174731 0.6182575
vt 0.9067811 0.6183258
vt 0.9067811 0.005714297
vt 0.9067811 0.6183258
vt 0.8960891 0.6183941
vt 0.8960891 0.005782544
vt 0.8960891 0.6183941
vt 0.8853971 0.6184623
vt 0.8853971 0.005850732
vt 0.8853971 0.6184623
vt 0.8747051 0.6185306
vt 0.8747051 0.005918979
vt 0.8747051 0.6185306
vt 0.8640132 0.6185989
vt 0.8640132 0.005987226
vt 0.8640132 0.6185989
vt 0.8533211 0.6186671
vt 0.8533211 0.006055414
vt 0.8533211 0.6186671
vt 0.8426291 0.6187353
vt 0.8426291 0.006123661
vt 0.8426291 0.6187353
vt 0.8319373 0.6188038
vt 0.8319373 0.006191909
vt 0.8319373 0.6188038
vt 0.8212451 0.6188719
vt 0.8212451 0.006260097
vt 0.8212451 0.6188719
vt 0.8105532 0.6189402
vt 0.8105532 0.006328344
vt 0.8105532 0.6189402
vt 0.7998612 0.6190085
vt 0.7998612 0.006396532
vt 0.9709329 0.6179163
vt 0.9602409 0.6179845
vt 0.9602409 0.005373179
vt 0.9602409 0.6179845
vt 0.949549 0.6180527
vt 0.949549 0.005441427
vt 0.008250653 0.7065421
vt 0.005304992 0.6994304
vt 0.005304932 0.6917331
vt 0.005304932 0.6917331
vt 0.008250653 0.6846215
vt 0.01369357 0.6791785
vt 0.01369357 0.6791785
vt 0.02080512 0.6762328
vt 0.02850258 0.6762328
vt 0.02850258 0.6762328
vt 0.03561419 0.6791785
vt 0.0410571 0.6846215
vt 0.0410571 0.6846215
vt 0.04400271 0.691733
vt 0.04400271 0.6994305
vt 0.04400271 0.6994305
vt 0.0410571 0.706542
vt 0.03561413 0.7119849
vt 0.03561413 0.7119849
vt 0.02850264 0.7149307
vt 0.02080512 0.7149307
vt 0.02080512 0.7149307
vt 0.01369357 0.7119849
vt 0.008250653 0.7065421
vt 0.008250653 0.7065421
vt 0.005304932 0.6917331
vt 0.01369357 0.6791785
vt 0.01369357 0.6791785
vt 0.02850258 0.6762328
vt 0.008250653 0.7065421
vt 0.02850258 0.6762328
vt 0.0410571 0.6846215
vt 0.008250653 0.7065421
vt 0.0410571 0.6846215
vt 0.04400271 0.6994305
vt 0.03561413 0.7119849
vt 0.03561413 0.7119849
vt 0.02080512 0.7149307
vt 0.0410571 0.6846215
vt 0.949549 0.6180527
vt 0.9388569 0.6181211
vt 0.9388569 0.005509614
vt 0.9388569 0.6181211
vt 0.928165 0.6181893
vt 0.9281651 0.005577862
vt 0.3097447 0.7497987
vt 0.3020471 0.7497987
vt 0.3020479 0.4025833
vt 0.3020471 0.7497987
vt 0.2943496 0.7497986
vt 0.2943516 0.4025833
vt 0.2943496 0.7497986
vt 0.2866519 0.7497985
vt 0.2866553 0.4025833
vt 0.2866519 0.7497985
vt 0.2789544 0.7497985
vt 0.2789571 0.4025833
vt 0.4021155 0.7497987
vt 0.3944178 0.7497987
vt 0.3944148 0.4025833
vt 0.3944178 0.7497987
vt 0.3867202 0.7497988
vt 0.3867185 0.4025834
vt 0.3867202 0.7497988
vt 0.3790228 0.7497988
vt 0.3790222 0.4025834
vt 0.3790228 0.7497988
vt 0.3713252 0.7497988
vt 0.371324 0.4025834
vt 0.3713252 0.7497988
vt 0.3636276 0.7497988
vt 0.3636258 0.4025834
vt 0.3636276 0.7497988
vt 0.35593 0.7497988
vt 0.3559295 0.4025835
vt 0.35593 0.7497988
vt 0.3482325 0.7497988
vt 0.3482332 0.4025835
vt 0.3482325 0.7497988
vt 0.3405349 0.7497988
vt 0.3405351 0.4025835
vt 0.3405349 0.7497988
vt 0.3328374 0.7497988
vt 0.3328369 0.4025835
vt 0.3328374 0.7497988
vt 0.3251398 0.7497988
vt 0.3251405 0.4025835
vt 0.3251398 0.7497988
vt 0.3174422 0.7497987
vt 0.3174442 0.4025835
vt 0.3174422 0.7497987
vt 0.3097447 0.7497987
vt 0.3097461 0.4025833
vt 0.4127254 0.6656229
vt 0.4784853 0.6656229
vt 0.4784853 0.4025834
vt 0.4890952 0.6656228
vt 0.5548551 0.6656228
vt 0.5548552 0.4025833
vt 0.6312249 0.4025833
vt 0.565465 0.4025834
vt 0.565465 0.665623
vt 0.6418349 0.6656228
vt 0.7075949 0.6656228
vt 0.7075949 0.4025834
vt 0.2683445 0.6656229
vt 0.2683445 0.4025834
vt 0.005304992 0.4025834
vt 0.994695 0.3919703
vt 0.994695 0.005304932
vt 0.981543 0.005304932
vt 0.7657288 0.4025833
vt 0.7657291 0.789249
vt 0.7788811 0.789249
vt 0.7182051 0.4025834
vt 0.7182047 0.7892531
vt 0.7313569 0.7892531
vt 0.7551184 0.7892536
vt 0.7551188 0.4025833
vt 0.7419667 0.4025833
vt 0.7998617 0.89266
vt 0.8130134 0.89266
vt 0.8130134 0.6296184
vt 0.3919733 0.005304932
vt 0.330159 0.06711918
vt 0.3301589 0.330159
vt 0.4643977 0.330159
vt 0.4643977 0.06711935
vt 0.4025833 0.005304932
vt 0.3301589 0.330159
vt 0.0671193 0.3301591
vt 0.005304932 0.3919734
vt 0.06711912 0.06711989
vt 0.005304932 0.005305707
vt 0.005304932 0.3919734
vt 0.8605371 0.6296183
vt 0.8473854 0.6296183
vt 0.8473854 0.8926596
vt 0.7274371 0.330159
vt 0.4643977 0.330159
vt 0.4025834 0.3919733
vt 0.8367753 0.8926592
vt 0.8367753 0.6296184
vt 0.8236231 0.6296184
vt 0.7892513 0.005305171
vt 0.7274371 0.06711935
vt 0.7274371 0.330159
vt 0.8711476 0.6296184
vt 0.8711473 0.89266
vt 0.8842993 0.89266
vt 0.9174731 0.005646049
vt 0.9174731 0.6182575
vt 0.928165 0.6181893
vt 0.9067811 0.005714297
vt 0.9067811 0.6183258
vt 0.9174731 0.6182575
vt 0.8960891 0.005782544
vt 0.8960891 0.6183941
vt 0.9067811 0.6183258
vt 0.8853971 0.005850732
vt 0.8853971 0.6184623
vt 0.8960891 0.6183941
vt 0.8747051 0.005918979
vt 0.8747051 0.6185306
vt 0.8853971 0.6184623
vt 0.8640132 0.005987226
vt 0.8640132 0.6185989
vt 0.8747051 0.6185306
vt 0.8533211 0.006055414
vt 0.8533211 0.6186671
vt 0.8640132 0.6185989
vt 0.8426291 0.006123661
vt 0.8426291 0.6187353
vt 0.8533211 0.6186671
vt 0.8319373 0.006191909
vt 0.8319373 0.6188038
vt 0.8426291 0.6187353
vt 0.8212451 0.006260097
vt 0.8212451 0.6188719
vt 0.8319373 0.6188038
vt 0.8105532 0.006328344
vt 0.8105532 0.6189402
vt 0.8212451 0.6188719
vt 0.7998612 0.006396532
vt 0.7998612 0.6190085
vt 0.8105532 0.6189402
vt 0.9602409 0.005373179
vt 0.9602409 0.6179845
vt 0.9709329 0.6179163
vt 0.949549 0.005441427
vt 0.949549 0.6180527
vt 0.9602409 0.6179845
vt 0.005304932 0.6917331
vt 0.005304992 0.6994304
vt 0.008250653 0.7065421
vt 0.008250653 0.7065421
vt 0.01369357 0.7119849
vt 0.02080512 0.7149307
vt 0.02080512 0.7149307
vt 0.02850264 0.7149307
vt 0.03561413 0.7119849
vt 0.03561413 0.7119849
vt 0.0410571 0.706542
vt 0.04400271 0.6994305
vt 0.04400271 0.6994305
vt 0.04400271 0.691733
vt 0.0410571 0.6846215
vt 0.0410571 0.6846215
vt 0.03561419 0.6791785
vt 0.02850258 0.6762328
vt 0.02850258 0.6762328
vt 0.02080512 0.6762328
vt 0.01369357 0.6791785
vt 0.01369357 0.6791785
vt 0.008250653 0.6846215
vt 0.005304932 0.6917331
vt 0.005304932 0.6917331
vt 0.008250653 0.7065421
vt 0.04400271 0.6994305
vt 0.008250653 0.7065421
vt 0.02080512 0.7149307
vt 0.04400271 0.6994305
vt 0.02080512 0.7149307
vt 0.03561413 0.7119849
vt 0.04400271 0.6994305
vt 0.04400271 0.6994305
vt 0.0410571 0.6846215
vt 0.005304932 0.6917331
vt 0.0410571 0.6846215
vt 0.02850258 0.6762328
vt 0.005304932 0.6917331
vt 0.9388569 0.005509614
vt 0.9388569 0.6181211
vt 0.949549 0.6180527
vt 0.9281651 0.005577862
vt 0.928165 0.6181893
vt 0.9388569 0.6181211
vt 0.3020479 0.4025833
vt 0.3020471 0.7497987
vt 0.3097447 0.7497987
vt 0.2943516 0.4025833
vt 0.2943496 0.7497986
vt 0.3020471 0.7497987
vt 0.2866553 0.4025833
vt 0.2866519 0.7497985
vt 0.2943496 0.7497986
vt 0.2789571 0.4025833
vt 0.2789544 0.7497985
vt 0.2866519 0.7497985
vt 0.3944148 0.4025833
vt 0.3944178 0.7497987
vt 0.4021155 0.7497987
vt 0.3867185 0.4025834
vt 0.3867202 0.7497988
vt 0.3944178 0.7497987
vt 0.3790222 0.4025834
vt 0.3790228 0.7497988
vt 0.3867202 0.7497988
vt 0.371324 0.4025834
vt 0.3713252 0.7497988
vt 0.3790228 0.7497988
vt 0.3636258 0.4025834
vt 0.3636276 0.7497988
vt 0.3713252 0.7497988
vt 0.3559295 0.4025835
vt 0.35593 0.7497988
vt 0.3636276 0.7497988
vt 0.3482332 0.4025835
vt 0.3482325 0.7497988
vt 0.35593 0.7497988
vt 0.3405351 0.4025835
vt 0.3405349 0.7497988
vt 0.3482325 0.7497988
vt 0.3328369 0.4025835
vt 0.3328374 0.7497988
vt 0.3405349 0.7497988
vt 0.3251405 0.4025835
vt 0.3251398 0.7497988
vt 0.3328374 0.7497988
vt 0.3174442 0.4025835
vt 0.3174422 0.7497987
vt 0.3251398 0.7497988
vt 0.3097461 0.4025833
vt 0.3097447 0.7497987
vt 0.3174422 0.7497987
vn -1 0 0
vn 0 1 0
vn 1 0 0
vn 0 -1 0
vn 0 0 1
vn 0 0 -1
vn 0 -1 0
vn 0 1 0
vn 0.1950899 0.9807854 0
vn 0.5555689 0.8314707 0
vn 0.8314701 0.5555697 0
vn 0.9807859 0.195088 0
vn 0.9807851 -0.1950918 0
vn 0.8314683 -0.5555723 0
vn 0.5555725 -0.8314682 0
vn 0.1950907 -0.9807853 0
vn -0.1950899 -0.9807854 0
vn -0.5555705 -0.8314694 0
vn -0.83147 -0.5555697 0
vn -0.9807859 -0.1950879 0
vn -0.980785 0.1950917 0
vn -0.8314682 0.5555726 0
vn 5.85373e-06 0 1
vn -0.5555709 0.8314692 0
vn -0.1950905 0.9807853 0
vn 0 0.9807853 -0.1950907
vn 0 0.8314701 -0.5555695
vn 0 0.5555693 -0.8314703
vn 0 0.1950919 -0.980785
vn 0 -0.1950919 -0.980785
vn -1.50688e-07 -0.5555693 -0.8314703
vn 0 -0.8314703 -0.5555694
vn 0 -0.9807853 -0.1950907
vn 0 -0.9807854 0.1950901
vn 0 -0.8314693 0.5555707
vn 0 -0.555571 0.8314692
vn 1.50688e-07 -0.1950893 0.9807855
vn 0 0.1950893 0.9807856
vn 0 0.5555714 0.8314689
vn 0 0.8314693 0.5555707
vn 0 0.9807854 0.1950898
vn 0 1 0
vn -0.1950899 0.9807854 0
vn -0.5555689 0.8314707 0
vn -0.8314701 0.5555697 0
vn -0.9807859 0.195088 0
vn -0.9807851 -0.1950918 0
vn -0.8314683 -0.5555723 0
vn -0.5555725 -0.8314682 0
vn -0.1950907 -0.9807853 0
vn 0.1950899 -0.9807854 0
vn 0.5555705 -0.8314694 0
vn 0.83147 -0.5555697 0
vn 0.9807859 -0.1950879 0
vn 0.980785 0.1950917 0
vn 0.8314682 0.5555726 0
vn -9.99295e-06 0 1
vn 0.5555709 0.8314692 0
vn 0.1950905 0.9807853 0
vn 1.50688e-07 -0.5555693 -0.8314703
vn -1.50688e-07 -0.1950893 0.9807855
vn 0 -1 0
vn 0 1 0
vn 0.1950907 0.9807853 0
vn 0.5555725 0.8314682 0
vn 0.8314683 0.5555723 0
vn 0.9807851 0.1950917 0
vn 0.9807857 -0.195088 0
vn 0.8314701 -0.5555696 0
vn 0.5555689 -0.8314707 0
vn -0.8314682 -0.5555724 0
vn -0.980785 -0.1950917 0
vn -0.9807859 0.1950879 0
vn -0.83147 0.5555699 0
vn -1.77618e-05 0 1
vn 3.55236e-05 0 1
vn -1.77618e-05 0 1
vn -3.55234e-05 0 1
vn -5.85373e-06 0 1
vn 4.99647e-06 0 1
vn -0.1950898 0.9807854 0
vn 0 0.9807854 -0.1950901
vn 0 0.8314695 -0.5555705
vn 0 0.555571 -0.8314691
vn 0 0.1950893 -0.9807855
vn -1.50688e-07 -0.1950895 -0.9807856
vn 0 -0.5555709 -0.8314692
vn 0 -0.8314693 -0.5555707
vn 0 -0.9807854 -0.1950901
vn 0 -0.9807853 0.1950907
vn 0 -0.8314703 0.5555691
vn 1.50688e-07 -0.5555695 0.8314702
vn 0 -0.1950917 0.980785
vn 1.50688e-07 0.1950918 0.9807851
vn 0 0.5555694 0.8314701
vn 0 0.83147 0.5555698
vn 0 0.9807853 0.1950907
vn 0 1 0
vn -0.1950907 0.9807853 0
vn -0.5555725 0.8314682 0
vn -0.8314683 0.5555723 0
vn -0.9807851 0.1950917 0
vn -0.9807857 -0.195088 0
vn -0.8314701 -0.5555696 0
vn -0.5555689 -0.8314707 0
vn 0.8314682 -0.5555724 0
vn 0.980785 -0.1950917 0
vn 0.9807859 0.1950879 0
vn 0.83147 0.5555699 0
vn 3.55234e-05 0 1
vn 1.77618e-05 0 1
vn -3.55236e-05 0 1
vn -4.99647e-06 0 1
vn -1.17075e-05 0 1
vn 1.65568e-05 0 1
vn 0.1950898 0.9807854 0
vn 0 0.555571 -0.8314691
vn 1.50688e-07 -0.1950895 -0.9807856
vn -1.50688e-07 -0.5555695 0.8314702
vn -1.50688e-07 0.1950918 0.9807851
f 2/1/1 3/2/1 1/3/1
f 4/4/2 7/5/2 3/6/2
f 8/7/3 5/8/3 7/9/3
f 6/10/4 1/11/4 5/12/4
f 4/13/5 6/14/5 8/15/5
f 10/16/1 11/17/1 9/18/1
f 16/19/3 13/20/3 15/21/3
f 15/22/6 9/23/6 11/24/6
f 12/25/5 14/26/5 16/27/5
f 21/28/3 17/29/3 18/30/3
f 22/31/7 9/32/7 13/33/7
f 16/34/8 18/35/8 12/36/8
f 14/37/4 22/38/4 13/39/4
f 14/40/4 21/41/4 23/42/4
f 19/43/1 22/44/1 23/45/1
f 12/46/2 17/47/2 11/48/2
f 21/49/6 19/50/6 23/51/6
f 17/52/2 15/53/2 11/54/2
f 22/55/5 17/56/5 24/57/5
f 26/58/9 27/59/9 25/60/9
f 28/61/10 29/62/10 27/63/10
f 30/64/11 31/65/11 29/66/11
f 32/67/12 33/68/12 31/69/12
f 34/70/13 35/71/13 33/72/13
f 36/73/14 37/74/14 35/75/14
f 38/76/15 39/77/15 37/78/15
f 40/79/16 41/80/16 39/81/16
f 42/82/17 43/83/17 41/84/17
f 44/85/18 45/86/18 43/87/18
f 46/88/19 47/89/19 45/90/19
f 48/91/20 49/92/20 47/93/20
f 50/94/21 51/95/21 49/96/21
f 52/97/22 53/98/22 51/99/22
f 34/100/23 30/101/23 46/102/23
f 54/103/24 55/104/24 53/105/24
f 56/106/25 25/107/25 55/108/25
f 58/109/26 59/110/26 57/111/26
f 60/112/27 61/113/27 59/114/27
f 62/115/28 63/116/28 61/117/28
f 64/118/29 65/119/29 63/120/29
f 66/121/30 67/122/30 65/123/30
f 68/124/31 69/125/31 67/126/31
f 70/127/32 71/128/32 69/129/32
f 72/130/33 73/131/33 71/132/33
f 74/133/34 75/134/34 73/135/34
f 76/136/35 77/137/35 75/138/35
f 78/139/36 79/140/36 77/141/36
f 80/142/37 81/143/37 79/144/37
f 82/145/38 83/146/38 81/147/38
f 84/148/39 85/149/39 83/150/39
f 86/151/40 87/152/40 85/153/40
f 88/154/41 57/155/41 87/156/41
f 91/157/3 90/158/3 89/159/3
f 95/160/2 92/161/2 91/162/2
f 93/163/1 96/164/1 95/165/1
f 89/166/4 94/167/4 93/168/4
f 94/169/5 92/170/5 96/171/5
f 99/172/3 98/173/3 97/174/3
f 101/175/1 104/176/1 103/177/1
f 97/178/6 103/179/6 99/180/6
f 102/181/5 100/182/5 104/183/5
f 105/184/1 109/185/1 106/186/1
f 97/187/7 110/188/7 101/189/7
f 106/190/2 104/191/2 100/192/2
f 110/193/4 102/194/4 101/195/4
f 109/196/4 102/197/4 111/198/4
f 110/199/3 107/200/3 111/201/3
f 105/202/2 100/203/2 99/204/2
f 107/205/6 109/206/6 111/207/6
f 103/208/42 105/209/42 99/210/42
f 105/211/5 110/212/5 112/213/5
f 115/214/43 114/215/43 113/216/43
f 117/217/44 116/218/44 115/219/44
f 119/220/45 118/221/45 117/222/45
f 121/223/46 120/224/46 119/225/46
f 123/226/47 122/227/47 121/228/47
f 125/229/48 124/230/48 123/231/48
f 127/232/49 126/233/49 125/234/49
f 129/235/50 128/236/50 127/237/50
f 131/238/51 130/239/51 129/240/51
f 133/241/52 132/242/52 131/243/52
f 135/244/53 134/245/53 133/246/53
f 137/247/54 136/248/54 135/249/54
f 139/250/55 138/251/55 137/252/55
f 141/253/56 140/254/56 139/255/56
f 138/256/57 142/257/57 114/258/57
f 143/259/58 142/260/58 141/261/58
f 113/262/59 144/263/59 143/264/59
f 147/265/26 146/266/26 145/267/26
f 149/268/27 148/269/27 147/270/27
f 151/271/28 150/272/28 149/273/28
f 153/274/29 152/275/29 151/276/29
f 155/277/30 154/278/30 153/279/30
f 157/280/60 156/281/60 155/282/60
f 159/283/32 158/284/32 157/285/32
f 161/286/33 160/287/33 159/288/33
f 163/289/34 162/290/34 161/291/34
f 165/292/35 164/293/35 163/294/35
f 167/295/36 166/296/36 165/297/36
f 169/298/61 168/299/61 167/300/61
f 171/301/38 170/302/38 169/303/38
f 173/304/39 172/305/39 171/306/39
f 175/307/40 174/308/40 173/309/40
f 145/310/41 176/311/41 175/312/41
f 2/313/1 4/314/1 3/315/1
f 4/316/2 8/317/2 7/318/2
f 8/319/3 6/320/3 5/321/3
f 6/322/4 2/323/4 1/324/4
f 4/325/5 2/326/5 6/327/5
f 10/328/1 12/329/1 11/330/1
f 16/331/3 14/332/3 13/333/3
f 15/334/6 13/335/6 9/336/6
f 12/337/5 10/338/5 14/339/5
f 21/340/3 24/341/3 17/342/3
f 22/343/4 24/344/4 9/345/4
f 16/346/2 19/347/2 18/348/2
f 14/349/4 23/350/4 22/351/4
f 14/352/62 10/353/62 21/354/62
f 19/355/1 20/356/1 22/357/1
f 12/358/2 18/359/2 17/360/2
f 21/361/6 18/362/6 19/363/6
f 17/364/63 20/365/63 15/366/63
f 22/367/5 20/368/5 17/369/5
f 26/370/64 28/371/64 27/372/64
f 28/373/65 30/374/65 29/375/65
f 30/376/66 32/377/66 31/378/66
f 32/379/67 34/380/67 33/381/67
f 34/382/68 36/383/68 35/384/68
f 36/385/69 38/386/69 37/387/69
f 38/388/70 40/389/70 39/390/70
f 40/391/51 42/392/51 41/393/51
f 42/394/50 44/395/50 43/396/50
f 44/397/18 46/398/18 45/399/18
f 46/400/71 48/401/71 47/402/71
f 48/403/72 50/404/72 49/405/72
f 50/406/73 52/407/73 51/408/73
f 52/409/74 54/410/74 53/411/74
f 30/412/75 28/413/75 26/414/75
f 26/415/5 56/416/5 54/417/5
f 54/418/5 52/419/5 50/420/5
f 50/421/76 48/422/76 46/423/76
f 46/424/77 44/425/77 42/426/77
f 42/427/5 40/428/5 38/429/5
f 38/430/78 36/431/78 34/432/78
f 34/433/5 32/434/5 30/435/5
f 30/436/5 26/437/5 54/438/5
f 54/439/5 50/440/5 30/441/5
f 50/442/79 46/443/79 30/444/79
f 46/445/80 42/446/80 38/447/80
f 38/448/5 34/449/5 46/450/5
f 54/451/24 56/452/24 55/453/24
f 56/454/81 26/455/81 25/456/81
f 58/457/82 60/458/82 59/459/82
f 60/460/83 62/461/83 61/462/83
f 62/463/84 64/464/84 63/465/84
f 64/466/85 66/467/85 65/468/85
f 66/469/86 68/470/86 67/471/86
f 68/472/87 70/473/87 69/474/87
f 70/475/88 72/476/88 71/477/88
f 72/478/89 74/479/89 73/480/89
f 74/481/90 76/482/90 75/483/90
f 76/484/91 78/485/91 77/486/91
f 78/487/92 80/488/92 79/489/92
f 80/490/93 82/491/93 81/492/93
f 82/493/94 84/494/94 83/495/94
f 84/496/95 86/497/95 85/498/95
f 86/499/96 88/500/96 87/501/96
f 88/502/97 58/503/97 57/504/97
f 91/505/3 92/506/3 90/507/3
f 95/508/2 96/509/2 92/510/2
f 93/511/1 94/512/1 96/513/1
f 89/514/4 90/515/4 94/516/4
f 94/517/5 90/518/5 92/519/5
f 99/520/3 100/521/3 98/522/3
f 101/523/1 102/524/1 104/525/1
f 97/526/6 101/527/6 103/528/6
f 102/529/5 98/530/5 100/531/5
f 105/532/1 112/533/1 109/534/1
f 97/535/4 112/536/4 110/537/4
f 106/538/98 107/539/98 104/540/98
f 110/541/4 111/542/4 102/543/4
f 109/544/62 98/545/62 102/546/62
f 110/547/3 108/548/3 107/549/3
f 105/550/2 106/551/2 100/552/2
f 107/553/6 106/554/6 109/555/6
f 103/556/2 108/557/2 105/558/2
f 105/559/5 108/560/5 110/561/5
f 115/562/99 116/563/99 114/564/99
f 117/565/100 118/566/100 116/567/100
f 119/568/101 120/569/101 118/570/101
f 121/571/102 122/572/102 120/573/102
f 123/574/103 124/575/103 122/576/103
f 125/577/104 126/578/104 124/579/104
f 127/580/105 128/581/105 126/582/105
f 129/583/17 130/584/17 128/585/17
f 131/586/16 132/587/16 130/588/16
f 133/589/52 134/590/52 132/591/52
f 135/592/106 136/593/106 134/594/106
f 137/595/107 138/596/107 136/597/107
f 139/598/108 140/599/108 138/600/108
f 141/601/109 142/602/109 140/603/109
f 114/604/5 116/605/5 118/606/5
f 118/607/5 120/608/5 122/609/5
f 122/610/110 124/611/110 126/612/110
f 126/613/111 128/614/111 130/615/111
f 130/616/76 132/617/76 134/618/76
f 134/619/112 136/620/112 138/621/112
f 138/622/5 140/623/5 142/624/5
f 142/625/5 144/626/5 114/627/5
f 114/628/5 118/629/5 130/630/5
f 118/631/5 122/632/5 130/633/5
f 122/634/113 126/635/113 130/636/113
f 130/637/114 134/638/114 114/639/114
f 134/640/115 138/641/115 114/642/115
f 143/643/58 144/644/58 142/645/58
f 113/646/116 114/647/116 144/648/116
f 147/649/82 148/650/82 146/651/82
f 149/652/83 150/653/83 148/654/83
f 151/655/117 152/656/117 150/657/117
f 153/658/85 154/659/85 152/660/85
f 155/661/118 156/662/118 154/663/118
f 157/664/87 158/665/87 156/666/87
f 159/667/88 160/668/88 158/669/88
f 161/670/89 162/671/89 160/672/89
f 163/673/90 164/674/90 162/675/90
f 165/676/91 166/677/91 164/678/91
f 167/679/119 168/680/119 166/681/119
f 169/682/93 170/683/93 168/684/93
f 171/685/120 172/686/120 170/687/120
f 173/688/95 174/689/95 172/690/95
f 175/691/96 176/692/96 174/693/96
f 145/694/97 146/695/97 176/696/97
